<?xml version="1.0" standalone="no"?>
<!DOCTYPE svg PUBLIC "-//W3C//DTD SVG 20010904//EN"
 "http://www.w3.org/TR/2001/REC-SVG-20010904/DTD/svg10.dtd">
<svg version="1.0" xmlns="http://www.w3.org/2000/svg"
 width="512.000000pt" height="512.000000pt" viewBox="0 0 512.000000 512.000000"
 preserveAspectRatio="xMidYMid meet">
<metadata>
Created by potrace 1.11, written by Peter Selinger 2001-2013
</metadata>
<g transform="translate(0.000000,512.000000) scale(0.100000,-0.100000)"
fill="#000000" stroke="none">
<path d="M763 3358 c1 -739 6 -1356 10 -1373 4 -16 14 -66 23 -110 84 -433
333 -829 686 -1092 117 -87 136 -99 283 -173 109 -54 316 -130 390 -143 17 -3
55 -11 85 -17 123 -25 378 -34 530 -18 176 17 423 90 585 170 89 45 217 121
256 152 15 12 38 30 53 40 189 136 396 387 514 621 60 120 127 305 148 407 40
197 38 142 41 1541 l4 1337 -1806 0 -1806 0 4 -1342z"/>
</g>
</svg>
